<svg xmlns="http://www.w3.org/2000/svg" width="20" height="20" viewBox="0 0 20 20">
  <metadata><?xpacket begin="﻿" id="W5M0MpCehiHzreSzNTczkc9d"?>
<x:xmpmeta xmlns:x="adobe:ns:meta/" x:xmptk="Adobe XMP Core 5.6-c142 79.160924, 2017/07/13-01:06:39        ">
   <rdf:RDF xmlns:rdf="http://www.w3.org/1999/02/22-rdf-syntax-ns#">
      <rdf:Description rdf:about=""/>
   </rdf:RDF>
</x:xmpmeta>
                                                                                                    
                                                                                                    
                                                                                                    
                                                                                                    
                                                                                                    
                                                                                                    
                                                                                                    
                                                                                                    
                                                                                                    
                                                                                                    
                                                                                                    
                                                                                                    
                                                                                                    
                                                                                                    
                                                                                                    
                                                                                                    
                                                                                                    
                                                                                                    
                                                                                                    
                                                                                                    
                           
<?xpacket end="w"?></metadata>
<defs>
    <style>
      .cls-1 {
        fill-rule: evenodd;
      }
    </style>
  </defs>
  <path id="icon_vkontakte" class="cls-1" d="M123,971a10,10,0,1,1-10,10A10,10,0,0,1,123,971Zm6.978,7.5c0.109,0.262-.233.877-1.094,1.881-1.414,1.651-1.567,1.5-.4,2.451a5.606,5.606,0,0,1,1.393,1.414s0.467,0.717-.518.723l-1.866.026a1.708,1.708,0,0,1-.934-0.25c-0.7-.422-1.356-1.516-1.866-1.376a1.009,1.009,0,0,0-.511,1.133,0.451,0.451,0,0,1-.109.326,0.666,0.666,0,0,1-.387.141h-0.838a5.481,5.481,0,0,1-3.471-1.388,16.922,16.922,0,0,1-3.34-4.831,0.262,0.262,0,0,1,.008-0.314,0.565,0.565,0,0,1,.415-0.121l2-.013a0.8,0.8,0,0,1,.321.115,0.482,0.482,0,0,1,.175.2,12.287,12.287,0,0,0,.751,1.369c0.729,1.318,1.225,1.542,1.509,1.407,0,0,.372-0.2.292-1.791a1.713,1.713,0,0,0-.211-0.838,1.023,1.023,0,0,0-.62-0.275c-0.109-.013.073-0.244,0.313-0.346a5.167,5.167,0,0,1,1.743-.153,4.35,4.35,0,0,1,.985.083c0.692,0.147.459,0.71,0.459,2.066a1.413,1.413,0,0,0,.262,1.242c0.154,0.089.533,0.013,1.466-1.382a11.215,11.215,0,0,0,.78-1.44,0.4,0.4,0,0,1,.183-0.2,0.531,0.531,0,0,1,.277-0.039l2.1-.012c0.634-.071.736,0.185,0.736,0.185h0Z" transform="translate(-113 -971)"/>
</svg>
